#!OML:ASF H:\Not Pregnant\Project 1\Capture day 1\Session 1\non-pregnant.ASF
:FULLY-SPECIFIED
:DEGREES
3509
root 7.12156 14.3166 33.2532 246.329 -48.2804 -223.265
lowerback 8.7597 9.42752 16.7524
upperback -11.1948 14.9423 -1.74156
thorax -12.9707 4.98306 -13.3557
lowerneck 4.22261 -9.46558 -30.7153
upperneck -0.13962 -16.8783 37.8441
head 5.94241 -9.11408 18.0519
rclavicle -1.18476e-013 -1.36764e-013
rhumerus -18.3286 -65.8821 12.375
rradius 22.7166
rwrist 55.0299
rhand -4.16273 -1.18433
rfingers 7.12502
rthumb 21.5977 -29.9999
lclavicle -1.18476e-013 -1.36764e-013
lhumerus -31.2904 41.8038 -20.2588
lradius 31.4938
lwrist 27.6856
lhand -18.2045 -3.03281
lfingers 7.12502
lthumb 8.073 26.793
rfemur -150.62 -36.4327 98.9114
rtibia 27.5705
rfoot 20.1886 59.2098
rtoes 0.224971
lfemur -12.0724 -4.66942 -33.3255
ltibia -4.45278e-014
lfoot -12.0546 7.10062
ltoes -24.6392
3510
root 7.12613 14.3116 33.2552 246.396 -48.1416 -223.309
lowerback 8.99466 9.42819 16.856
upperback -11.1242 15.0166 -1.59086
thorax -13.0273 5.00846 -13.2871
lowerneck 4.07649 -9.45828 -30.6709
upperneck -0.116538 -16.8221 37.8345
head 5.94924 -9.06947 18.0402
rclavicle -6.04305e-014 -2.8625e-014
rhumerus -19.5356 -65.5686 13.0946
rradius 22.7308
rwrist 54.8358
rhand -4.12951 -1.05728
rfingers 7.12502
rthumb 21.6296 -29.8692
lclavicle -6.04305e-014 -2.8625e-014
lhumerus -31.1873 41.8417 -20.58
lradius 31.5476
lwrist 27.8091
lhand -18.4283 -3.17609
lfingers 7.12502
lthumb 7.85697 26.6579
rfemur -150.62 -36.3418 98.7503
rtibia 27.5945
rfoot 20.2899 59.2302
rtoes 0.267978
lfemur -12.1258 -4.65014 -33.4478
ltibia 3.18055e-015
lfoot -12.1345 6.96172
ltoes -24.0769
3511
root 7.13131 14.3063 33.2576 246.461 -47.9906 -223.348
lowerback 9.23105 9.43625 16.9483
upperback -11.0568 15.0997 -1.44096
thorax -13.0879 5.0381 -13.215
lowerneck 3.9469 -9.42429 -30.6047
upperneck -0.0868998 -16.7212 37.7874
head 5.9284 -9.00232 18.0148
rclavicle -1.16885e-013 5.725e-014
rhumerus -20.7206 -65.2107 13.7975
rradius 22.7514
rwrist 54.5997
rhand -4.05293 -0.970607
rfingers 7.12502
rthumb 21.7031 -29.774
lclavicle -1.16885e-013 5.725e-014
lhumerus -31.057 41.7767 -20.876
lradius 31.6408
lwrist 28.0019
lhand -18.6173 -3.28735
lfingers 7.12502
lthumb 7.67457 26.5534
rfemur -150.674 -36.1419 98.6839
rtibia 27.6092
rfoot 20.431 59.3683
rtoes 0.378598
lfemur -12.186 -4.62457 -33.5826
ltibia 0
lfoot -12.2136 6.83425
ltoes -23.502
3512
root 7.13706 14.3006 33.2601 246.526 -47.8282 -223.383
lowerback 9.47115 9.4507 17.0326
upperback -10.9946 15.1913 -1.29515
thorax -13.1551 5.07076 -13.1457
lowerneck 3.84614 -9.36685 -30.551
upperneck -0.0709732 -16.5886 37.7419
head 5.88721 -8.92282 18.002
rclavicle -1.00187e-013 6.04305e-014
rhumerus -21.8815 -64.7952 14.4761
rradius 22.7797
rwrist 54.3255
rhand -3.93883 -0.905098
rfingers 7.12502
rthumb 21.8127 -29.6958
lclavicle -1.00187e-013 6.04305e-014
lhumerus -30.896 41.6201 -21.1463
lradius 31.7671
lwrist 28.2353
lhand -18.7855 -3.33853
lfingers 7.12502
lthumb 7.51222 26.5081
rfemur -150.812 -35.7917 98.7599
rtibia 27.616
rfoot 20.6295 59.6704
rtoes 0.584779
lfemur -12.2526 -4.59394 -33.7283
ltibia -4.45278e-014
lfoot -12.2916 6.71425
ltoes -22.9098
3513
root 7.14302 14.2945 33.2628 246.6 -47.6561 -223.427
lowerback 9.70169 9.46789 17.104
upperback -10.9278 15.2822 -1.14999
thorax -13.2137 5.10593 -13.0681
lowerneck 3.75908 -9.2969 -30.4868
upperneck -0.059331 -16.4314 37.6666
head 5.82676 -8.83084 17.9763
rclavicle -9.06458e-014 -1.08139e-013
rhumerus -23.0107 -64.4002 15.1386
rradius 22.8026
rwrist 54.0903
rhand -3.71939 -0.869655
rfingers 7.12502
rthumb 22.0234 -29.6357
lclavicle -9.06458e-014 -1.08139e-013
lhumerus -30.7278 41.4043 -21.3969
lradius 31.8983
lwrist 28.4721
lhand -18.9756 -3.44475
lfingers 7.12502
lthumb 7.32867 26.4083
rfemur -150.985 -35.3842 98.8807
rtibia 27.6182
rfoot 20.8558 60.0323
rtoes 0.825637
lfemur -12.3199 -4.56663 -33.888
ltibia -2.22639e-014
lfoot -12.3718 6.60347
ltoes -22.3004
3514
root 7.14913 14.2879 33.2651 246.686 -47.4754 -223.485
lowerback 9.92326 9.48806 17.1588
upperback -10.8587 15.3721 -1.00793
thorax -13.2667 5.14323 -12.9835
lowerneck 3.69103 -9.22418 -30.4197
upperneck -0.0598647 -16.2679 37.5748
head 5.75422 -8.73658 17.9424
rclavicle -7.71285e-014 -6.67916e-014
rhumerus -24.1388 -64.0575 15.8181
rradius 22.8095
rwrist 53.9601
rhand -3.4073 -0.859988
rfingers 7.12502
rthumb 22.323 -29.5905
lclavicle -7.71285e-014 -6.67916e-014
lhumerus -30.5453 41.154 -21.6199
lradius 32.0201
lwrist 28.6809
lhand -19.2299 -3.65149
lfingers 7.12502
lthumb 7.08325 26.21
rfemur -151.185 -34.9386 99.0281
rtibia 27.6205
rfoot 21.0967 60.4317
rtoes 1.08241
lfemur -12.3883 -4.54513 -34.06
ltibia 2.54444e-014
lfoot -12.4547 6.50001
ltoes -21.6693
3515
root 7.1552 14.281 33.2673 246.784 -47.2941 -223.562
lowerback 10.1301 9.50648 17.2009
upperback -10.7825 15.4541 -0.857028
thorax -13.3099 5.1804 -12.8783
lowerneck 3.62902 -9.15076 -30.3649
upperneck -0.0531896 -16.101 37.4548
head 5.67856 -8.63978 17.8966
rclavicle -1.30403e-013 -7.95139e-014
rhumerus -25.2301 -63.7192 16.469
rradius 22.8211
rwrist 53.8727
rhand -3.09084 -0.849543
rfingers 7.12502
rthumb 22.6268 -29.5433
lclavicle -1.30403e-013 -7.95139e-014
lhumerus -30.3845 40.9264 -21.8315
lradius 32.1256
lwrist 28.8118
lhand -19.53 -3.95658
lfingers 7.12502
lthumb 6.79357 25.9144
rfemur -151.383 -34.5202 99.149
rtibia 27.6264
rfoot 21.3224 60.8017
rtoes 1.31336
lfemur -12.4508 -4.53533 -34.2398
ltibia -6.36111e-015
lfoot -12.5406 6.4017
ltoes -21.021
3516
root 7.16125 14.2739 33.2695 246.889 -47.1134 -223.653
lowerback 10.3247 9.51883 17.2303
upperback -10.7025 15.5232 -0.698351
thorax -13.3503 5.2137 -12.7547
lowerneck 3.57179 -9.0798 -30.316
upperneck -0.033792 -15.9393 37.3133
head 5.6054 -8.54497 17.8399
rclavicle -7.15625e-014 -8.26944e-014
rhumerus -26.2764 -63.4519 17.0925
rradius 22.8134
rwrist 53.889
rhand -2.79953 -0.821501
rfingers 7.12502
rthumb 22.9064 -29.4809
lclavicle -7.15625e-014 -8.26944e-014
lhumerus -30.2504 40.7014 -22.0439
lradius 32.2175
lwrist 28.8912
lhand -19.8927 -4.42111
lfingers 7.12502
lthumb 6.44342 25.4609
rfemur -151.592 -34.1093 99.2681
rtibia 27.6374
rfoot 21.5356 61.1676
rtoes 1.53237
lfemur -12.507 -4.53545 -34.4264
ltibia -6.36111e-015
lfoot -12.6292 6.30551
ltoes -20.3588
3517
root 7.16757 14.2669 33.2717 246.996 -46.9299 -223.753
lowerback 10.5162 9.52853 17.2491
upperback -10.6219 15.5865 -0.532333
thorax -13.3949 5.24489 -12.6171
lowerneck 3.51537 -9.00933 -30.2848
upperneck 0.00358104 -15.7822 37.1582
head 5.53912 -8.45214 17.7796
rclavicle 5.88403e-014 -2.22639e-014
rhumerus -27.2642 -63.1827 17.6655
rradius 22.8055
rwrist 53.8976
rhand -2.55794 -0.782078
rfingers 7.12502
rthumb 23.1382 -29.4126
lclavicle 5.88403e-014 -2.22639e-014
lhumerus -30.1398 40.5342 -22.2583
lradius 32.308
lwrist 28.8901
lhand -20.2194 -4.84673
lfingers 7.12502
lthumb 6.12802 25.0446
rfemur -151.808 -33.6952 99.3894
rtibia 27.6498
rfoot 21.7503 61.5388
rtoes 1.759
lfemur -12.558 -4.53896 -34.6192
ltibia 9.54166e-015
lfoot -12.7174 6.21534
ltoes -19.6863
3518
root 7.17419 14.2598 33.2739 247.098 -46.7473 -223.853
lowerback 10.7042 9.52905 17.26
upperback -10.536 15.6354 -0.35473
thorax -13.4409 5.27065 -12.4611
lowerneck 3.44025 -8.94358 -30.2808
upperneck 0.0576304 -15.6341 37.0069
head 5.48843 -8.36266 17.7251
rclavicle -4.13472e-014 4.77083e-014
rhumerus -28.1622 -62.9706 18.1624
rradius 22.7825
rwrist 53.9256
rhand -2.40861 -0.715687
rfingers 7.12502
rthumb 23.2814 -29.3281
lclavicle -4.13472e-014 4.77083e-014
lhumerus -30.0668 40.3364 -22.4848
lradius 32.4053
lwrist 28.9089
lhand -20.5471 -5.20037
lfingers 7.12502
lthumb 5.81163 24.6999
rfemur -152.032 -33.2614 99.5339
rtibia 27.6604
rfoot 21.9751 61.9352
rtoes 2.00754
lfemur -12.604 -4.54295 -34.8125
ltibia -3.18055e-015
lfoot -12.8007 6.12161
ltoes -19.0095
3519
root 7.18153 14.2529 33.2761 247.186 -46.5609 -223.941
lowerback 10.8992 9.52127 17.265
upperback -10.4486 15.6743 -0.167301
thorax -13.4973 5.29095 -12.2929
lowerneck 3.35193 -8.88024 -30.3011
upperneck 0.131876 -15.4946 36.862
head 5.45292 -8.27707 17.678
rclavicle -1.85267e-013 -4.77083e-014
rhumerus -28.9481 -62.759 18.5428
rradius 22.7654
rwrist 53.9073
rhand -2.23253 -0.692973
rfingers 7.12502
rthumb 23.4503 -29.2839
lclavicle -1.85267e-013 -4.77083e-014
lhumerus -30.0307 40.1173 -22.7336
lradius 32.5115
lwrist 28.9548
lhand -20.8482 -5.43828
lfingers 7.12502
lthumb 5.52094 24.4698
rfemur -152.272 -32.7638 99.7311
rtibia 27.6671
rfoot 22.2472 62.3967
rtoes 2.31644
lfemur -12.6497 -4.53728 -35.0063
ltibia -5.725e-014
lfoot -12.8771 6.02505
ltoes -18.3317
3520
root 7.18949 14.2464 33.2782 247.255 -46.3803 -224.011
lowerback 11.1044 9.50581 17.2789
upperback -10.361 15.7072 0.0276798
thorax -13.5625 5.30612 -12.1232
lowerneck 3.24702 -8.82568 -30.3448
upperneck 0.227514 -15.3735 36.7273
head 5.43774 -8.20001 17.6378
rclavicle -9.14409e-014 4.45278e-014
rhumerus -29.6432 -62.5547 18.8239
rradius 22.7615
rwrist 53.8635
rhand -2.02053 -0.692601
rfingers 7.12502
rthumb 23.6537 -29.2574
lclavicle -9.14409e-014 4.45278e-014
lhumerus -30.0108 39.8787 -22.9974
lradius 32.617
lwrist 29.0367
lhand -21.1212 -5.5729
lfingers 7.12502
lthumb 5.2573 24.3419
rfemur -152.51 -32.2299 99.9659
rtibia 27.6702
rfoot 22.5543 62.8954
rtoes 2.66988
lfemur -12.6944 -4.52156 -35.1881
ltibia 9.54166e-015
lfoot -12.9445 5.92663
ltoes -17.6551
3521
root 7.19751 14.24 33.2802 247.318 -46.2047 -224.08
lowerback 11.3053 9.48376 17.2984
upperback -10.2648 15.7308 0.231562
thorax -13.6192 5.31838 -11.9439
lowerneck 3.12276 -8.77079 -30.3967
upperneck 0.345328 -15.2504 36.5825
head 5.43125 -8.12016 17.5943
rclavicle -5.56597e-014 -5.725e-014
rhumerus -30.2596 -62.3731 19.0261
rradius 22.7725
rwrist 53.8257
rhand -1.79589 -0.716107
rfingers 7.12502
rthumb 23.8691 -29.2529
lclavicle -5.56597e-014 -5.725e-014
lhumerus -30.0091 39.6395 -23.266
lradius 32.7147
lwrist 29.1546
lhand -21.3625 -5.6296
lfingers 7.12502
lthumb 5.02437 24.2908
rfemur -152.737 -31.7052 100.198
rtibia 27.6711
rfoot 22.8751 63.3883
rtoes 3.02641
lfemur -12.7331 -4.50503 -35.3635
ltibia -4.13472e-014
lfoot -13.0028 5.82007
ltoes -16.9875
3522
root 7.20539 14.2337 33.2819 247.376 -46.0359 -224.149
lowerback 11.5006 9.45976 17.3282
upperback -10.1595 15.7512 0.439746
thorax -13.6613 5.3309 -11.7621
lowerneck 2.98106 -8.72451 -30.4578
upperneck 0.473906 -15.1375 36.4337
head 5.43566 -8.04386 17.5479
rclavicle 2.34566e-014 -3.49861e-014
rhumerus -30.8371 -62.2544 19.2089
rradius 22.7825
rwrist 53.8568
rhand -1.55034 -0.756998
rfingers 7.12502
rthumb 24.1046 -29.2628
lclavicle 2.34566e-014 -3.49861e-014
lhumerus -30.0079 39.4242 -23.5209
lradius 32.7965
lwrist 29.3004
lhand -21.5655 -5.63846
lfingers 7.12502
lthumb 4.82836 24.2865
rfemur -152.952 -31.2035 100.417
rtibia 27.6724
rfoot 23.1953 63.8603
rtoes 3.36839
lfemur -12.7668 -4.48989 -35.5303
ltibia 3.18055e-014
lfoot -13.0531 5.70798
ltoes -16.3309
3523
root 7.21307 14.2275 33.2832 247.433 -45.8697 -224.218
lowerback 11.687 9.4388 17.3634
upperback -10.0435 15.7734 0.650592
thorax -13.6836 5.34721 -11.5767
lowerneck 2.81628 -8.69272 -30.5271
upperneck 0.614018 -15.0412 36.2777
head 5.45426 -7.97362 17.495
rclavicle -1.02175e-013 6.36111e-015
rhumerus -31.3993 -62.1606 19.3795
rradius 22.8061
rwrist 53.9067
rhand -1.33658 -0.80336
rfingers 7.12502
rthumb 24.3096 -29.2819
lclavicle -1.02175e-013 6.36111e-015
lhumerus -29.9982 39.2504 -23.7491
lradius 32.856
lwrist 29.4749
lhand -21.7261 -5.62769
lfingers 7.12502
lthumb 4.67324 24.3008
rfemur -153.143 -30.7449 100.596
rtibia 27.6753
rfoot 23.5077 64.2873
rtoes 3.68591
lfemur -12.7977 -4.47511 -35.6923
ltibia -6.36111e-014
lfoot -13.0953 5.58905
ltoes -15.6865
